<?xml version="1.0" encoding="UTF-8"?>
<svg width="512" height="512" viewBox="0 0 512 512" fill="none" xmlns="http://www.w3.org/2000/svg" role="img" aria-label="ATS Checker icon">
  <defs>
    <linearGradient id="docGrad" x1="118" y1="64" x2="354" y2="392" gradientUnits="userSpaceOnUse">
      <stop offset="0" stop-color="#8B5CF6"/>
      <stop offset="0.45" stop-color="#06B6D4"/>
      <stop offset="1" stop-color="#22C55E"/>
    </linearGradient>
    <linearGradient id="checkGrad" x1="248" y1="180" x2="438" y2="360" gradientUnits="userSpaceOnUse">
      <stop offset="0" stop-color="#22C55E"/>
      <stop offset="0.5" stop-color="#14B8A6"/>
      <stop offset="1" stop-color="#06B6D4"/>
    </linearGradient>
    <linearGradient id="alertGrad" x1="0" y1="0" x2="1" y2="1">
      <stop offset="0" stop-color="#FDE047"/>
      <stop offset="1" stop-color="#FB7185"/>
    </linearGradient>
    <filter id="glow" x="-50%" y="-50%" width="200%" height="200%">
      <feGaussianBlur stdDeviation="8" result="blur"/>
      <feColorMatrix in="blur" type="matrix"
        values="1 0 0 0 0
                0 1 0 0 0
                0 0 1 0 0
                0 0 0 0.35 0" result="glowColor"/>
      <feBlend in="SourceGraphic" in2="glowColor" mode="screen"/>
    </filter>
    <style>
      .floaty { animation: floaty 2.8s ease-in-out infinite; transform-origin: 50% 50%; }
      .lineGlow1 { animation: lineGlow 1.7s ease-in-out infinite; }
      .lineGlow2 { animation: lineGlow 1.7s ease-in-out infinite .18s; }
      .lineGlow3 { animation: lineGlow 1.7s ease-in-out infinite .36s; }
      .scan { animation: scanMove 1.9s ease-in-out infinite; }
      .ringSpin { animation: ringSpin 5s linear infinite; transform-origin: 360px 236px; }
      .checkPulse { animation: checkPulse 1.6s ease-in-out infinite; transform-origin: 360px 236px; }
      .badgePulse { animation: badgePulse 1.5s ease-in-out infinite; transform-origin: center; }
      .spark1 { animation: twinkle 1.2s ease-in-out infinite; }
      .spark2 { animation: twinkle 1.35s ease-in-out infinite .2s; }
      .spark3 { animation: twinkle 1.15s ease-in-out infinite .45s; }

      @keyframes floaty {
        0%,100% { transform: translateY(0px); }
        50% { transform: translateY(-6px); }
      }
      @keyframes lineGlow {
        0%,100% { opacity: .72; }
        50% { opacity: 1; }
      }
      @keyframes scanMove {
        0% { transform: translateY(-70px); opacity: 0; }
        20% { opacity: .95; }
        80% { opacity: .95; }
        100% { transform: translateY(72px); opacity: 0; }
      }
      @keyframes ringSpin {
        from { transform: rotate(0deg); }
        to { transform: rotate(360deg); }
      }
      @keyframes checkPulse {
        0%,100% { transform: scale(1); opacity: .9; }
        50% { transform: scale(1.08); opacity: 1; }
      }
      @keyframes badgePulse {
        0%,100% { transform: scale(1); opacity: .9; }
        50% { transform: scale(1.12); opacity: 1; }
      }
      @keyframes twinkle {
        0%,100% { opacity: .55; transform: scale(1) rotate(0deg); }
        50% { opacity: 1; transform: scale(1.2) rotate(10deg); }
      }
    </style>
  </defs>

  <!-- Decorative sparks -->
  <g filter="url(#glow)">
    <path class="spark1" d="M118 102L124 116L138 122L124 128L118 142L112 128L98 122L112 116L118 102Z" fill="#FDE047"/>
    <path class="spark2" d="M414 116L418 126L428 130L418 134L414 144L410 134L400 130L410 126L414 116Z" fill="#C4B5FD"/>
    <path class="spark3" d="M110 352L114 362L124 366L114 370L110 380L106 370L96 366L106 362L110 352Z" fill="#67E8F9"/>
  </g>

  <!-- Main resume document -->
  <g class="floaty" filter="url(#glow)">
    <path d="M118 84C118 68.536 130.536 56 146 56H279.5C286.926 56 294.048 58.948 299.302 64.201L355.799 120.698C361.052 125.952 364 133.074 364 140.5V360C364 375.464 351.464 388 336 388H146C130.536 388 118 375.464 118 360V84Z"
          fill="#0F172A" fill-opacity=".9" stroke="url(#docGrad)" stroke-width="4"/>
    <path d="M280 56V116C280 129.255 290.745 140 304 140H364" fill="none" stroke="url(#docGrad)" stroke-width="4" stroke-linecap="round" stroke-linejoin="round"/>

    <!-- text lines -->
    <rect x="150" y="118" width="118" height="12" rx="6" fill="#E2E8F0" fill-opacity=".95"/>
    <rect x="150" y="146" width="146" height="10" rx="5" fill="#CBD5E1" fill-opacity=".74"/>

    <!-- ats scoring card -->
    <rect x="146" y="202" width="158" height="124" rx="24" fill="#111827" fill-opacity=".92" stroke="rgba(255,255,255,0.08)"/>
    <rect class="lineGlow1" x="164" y="224" width="104" height="12" rx="6" fill="#22D3EE" fill-opacity=".28" stroke="#22D3EE" stroke-opacity=".52"/>
    <rect class="lineGlow2" x="164" y="250" width="122" height="12" rx="6" fill="#A78BFA" fill-opacity=".24" stroke="#A78BFA" stroke-opacity=".48"/>
    <rect class="lineGlow3" x="164" y="276" width="88" height="12" rx="6" fill="#34D399" fill-opacity=".24" stroke="#34D399" stroke-opacity=".48"/>
    <rect x="164" y="300" width="72" height="8" rx="4" fill="#FDE68A" fill-opacity=".82"/>
  </g>

  <!-- ATS checking lens -->
  <g filter="url(#glow)">
    <circle cx="360" cy="236" r="60" fill="url(#checkGrad)" fill-opacity=".10"/>
    <circle cx="360" cy="236" r="50" fill="none" stroke="url(#checkGrad)" stroke-width="10"/>
    <circle class="ringSpin" cx="360" cy="236" r="38" fill="none" stroke="url(#checkGrad)" stroke-width="3" stroke-dasharray="8 12"/>
    <rect x="395" y="278" width="22" height="82" rx="11" transform="rotate(-42 395 278)" fill="url(#checkGrad)"/>

    <!-- scan beam clipped inside lens -->
    <clipPath id="lensClipAts">
      <circle cx="360" cy="236" r="40"/>
    </clipPath>
    <g clip-path="url(#lensClipAts)">
      <rect class="scan" x="314" y="196" width="92" height="14" rx="7" fill="#67E8F9" fill-opacity=".88"/>
      <rect class="scan" x="314" y="196" width="92" height="34" rx="17" fill="url(#checkGrad)" fill-opacity=".08"/>
    </g>

    <!-- check mark -->
    <path class="checkPulse" d="M340 236L354 250L382 220" fill="none" stroke="#F0FDF4" stroke-width="8" stroke-linecap="round" stroke-linejoin="round"/>
  </g>

  <!-- Compatibility badges -->
  <g filter="url(#glow)">
    <circle class="badgePulse" cx="314" cy="320" r="10" fill="url(#alertGrad)"/>
    <circle class="badgePulse" cx="352" cy="300" r="10" fill="#22D3EE"/>
    <circle class="badgePulse" cx="392" cy="280" r="10" fill="#34D399"/>
    <path d="M314 320L352 300L392 280" stroke="url(#docGrad)" stroke-width="4" stroke-linecap="round" stroke-linejoin="round" opacity=".8"/>
  </g>
</svg>
