<?xml version="1.0" encoding="UTF-8"?>
<svg width="256" height="256" viewBox="0 0 256 256" xmlns="http://www.w3.org/2000/svg" role="img" aria-label="Download Report Manual icon">
  <defs>
    <linearGradient id="g1" x1="0" y1="0" x2="1" y2="1">
      <stop offset="0%" stop-color="#22C55E"/>
      <stop offset="100%" stop-color="#06B6D4"/>
    </linearGradient>
    <linearGradient id="g2" x1="0" y1="0" x2="1" y2="1">
      <stop offset="0%" stop-color="#FACC15"/>
      <stop offset="100%" stop-color="#F97316"/>
    </linearGradient>
  </defs>

  <rect x="28" y="24" width="160" height="208" rx="24" fill="#0F172A" stroke="url(#g1)" stroke-width="4"/>
  <path d="M148 24V64C148 72.837 155.163 80 164 80H188" fill="none" stroke="url(#g1)" stroke-width="4" stroke-linecap="round" stroke-linejoin="round"/>

  <rect x="56" y="60" width="56" height="10" rx="5" fill="#E2E8F0"/>
  <rect x="56" y="84" width="94" height="8" rx="4" fill="#94A3B8"/>
  <rect x="56" y="104" width="82" height="8" rx="4" fill="#94A3B8"/>
  <rect x="56" y="124" width="70" height="8" rx="4" fill="#94A3B8"/>

  <rect x="54" y="152" width="86" height="44" rx="12" fill="#111827" stroke="#334155" stroke-width="2"/>
  <rect x="68" y="174" width="10" height="14" rx="4" fill="#22D3EE"/>
  <rect x="84" y="166" width="10" height="22" rx="4" fill="#A78BFA"/>
  <rect x="100" y="158" width="10" height="30" rx="4" fill="#34D399"/>
  <path d="M64 182H128" stroke="#475569" stroke-width="2.5" stroke-linecap="round"/>

  <circle cx="184" cy="180" r="36" fill="#111827" stroke="url(#g2)" stroke-width="4"/>
  <path d="M184 158V188" stroke="#FACC15" stroke-width="8" stroke-linecap="round"/>
  <path d="M170 178L184 192L198 178" fill="none" stroke="#FACC15" stroke-width="8" stroke-linecap="round" stroke-linejoin="round"/>
  <path d="M164 204H204" stroke="#FACC15" stroke-width="8" stroke-linecap="round"/>

  <path d="M204 44L208 54L218 58L208 62L204 72L200 62L190 58L200 54L204 44Z" fill="#67E8F9"/>
</svg>
